<?xml version="1.0" encoding="iso-8859-1"?>
<!-- Generator: Adobe Illustrator 21.1.0, SVG Export Plug-In . SVG Version: 6.00 Build 0)  -->
<svg version="1.1" id="_x31_0" xmlns="http://www.w3.org/2000/svg" xmlns:xlink="http://www.w3.org/1999/xlink" x="0px" y="0px"
	 viewBox="0 0 512 512" style="enable-background:new 0 0 512 512;" xml:space="preserve">
<g>
	<path style="fill:#FFFFFF;" d="M345.804,265.509c-17.163-1.401-40.981,1.401-45.184,2.102c-4.203,0.701-3.152,8.056-7.356,6.305
		c-4.203-1.751-21.716-0.701-24.518,3.503c-2.802,4.203-5.768,5.366-1.703,13.185c4.065,7.819,19.917,22.892,26.922,24.643
		c7.005,1.751,14.319-2.046,17.513-4.203c0,0,9.457,3.152,17.863,5.254c8.406,2.102,13.66,0.35,21.366-5.954
		c7.706-6.305,14.01-20.666,14.01-20.666s3.503-8.056,3.503-14.01C368.221,269.712,362.967,266.91,345.804,265.509z M300.97,306.139
		c-2.802,1.051-12.813,5.472-17.163-3.503c-4.35-8.975-7.531-16.36-6.305-18.564c1.226-2.204,5.954-3.853,10.158-3.152
		c4.203,0.701,8.406,2.802,8.406,2.802s4.294,16.351,6.305,18.914C304.383,305.201,303.773,305.089,300.97,306.139z"/>
	<path style="fill:#34AD37;" d="M22.861,409.934c-7.472-14.945-14.011-51.372-15.879-61.646
		c-1.868-10.274,5.604-56.042,18.681-76.591s22.417-58.844,31.757-70.053c9.34-11.208,36.427-43.9,36.427-43.9
		s21.483-22.417,30.823-26.153c9.34-3.736,17.747-8.406,17.747-8.406s16.271-14.276,24.432-17.329
		c8.161-3.053,14.797-9.758,17.599,2.384c2.802,12.143,7.472,18.681,11.209,23.351c3.736,4.67,18.963,3.687,27.087-2.802
		c8.124-6.489,10.274-14.011,18.681-14.945c8.406-0.934,10.274,6.538,12.143,12.142c1.868,5.604,3.736,22.417,6.538,26.153
		c2.802,3.736,9.29,12.669,16.743,14.743c7.453,2.074,23.224,25.807,23.224,25.807s0.71,3.493-2.092,3.493
		s-80.595-17.241-96.474,6.11c-15.879,23.351,10.029,89.018,26.842,98.358c9.459-22.964,11.208-28.955,26.153-29.889
		c14.945-0.934,19.615,2.802,19.615,2.802s-5.604,2.335-6.071,7.472c-0.467,5.137-3.269,2.335-8.873,4.203
		c-5.604,1.868-10.741,7.472-4.67,12.143c6.071,4.67,8.406,6.538,13.544,5.137c5.137-1.401,7.939-3.269,10.741-7.939
		s5.137-6.538,7.005-5.604c1.868,0.934,3.736,6.071,0.934,9.34c-2.802,3.269-8.873,8.873-8.873,8.873s3.269,0.467,0.934,6.538
		c-2.335,6.071-7.939,13.077-19.615,15.412c-11.675,2.335-10.741,1.868-15.879,5.604c-5.137,3.736-3.269,4.203-1.401,11.208
		c1.868,7.005,2.335,57.91,2.335,57.91s-127.963,7.005-129.364,7.005C113.463,410.868,22.861,409.934,22.861,409.934z"/>
	<path style="fill:#FFFFFF;" d="M209.795,197.02c4.203,0,35.649-1.11,39.178-1.507c3.529-0.397,9.794,1.507,9.041,4.52
		c-2.652,10.606,4.281,15.651-3.014,15.822c-18.515,0.435-40.542,10.96-37.671,32.397s9.619,31.384,14.756,36.521
		c5.137,5.137,2.802,3.736,2.802,3.736s-7.311,18.294-9.34,22.417c-2.029,4.122-9.804,8.811-21.95,11.208
		c-12.146,2.397-24.285-0.934-29.889-3.736c-5.604-2.802-11.675-12.609-14.01-15.879s-9.34-21.483-10.741-23.818
		c-1.401-2.335,0.467-10.741,8.873-19.148c8.406-8.406,16.813-14.944,11.676-28.955c-5.137-14.01-27.87-40.133-8.16-46.413
		C170.197,181.366,209.795,197.02,209.795,197.02z"/>
	<path style="fill:#FFFFFF;" d="M245.629,335.211c0,0,11.208,34.092,10.274,50.905c-0.934,16.813-6.071,16.346-6.071,16.346
		s-40.631,2.802-45.301,2.802s-60.245,1.401-62.113,1.401s-44.367,1.868-47.636,1.868c-3.269,0-10.741-25.219-3.269-56.976
		c7.472-31.757,13.076-43.433,17.28-40.631c4.203,2.802,27.087,35.493,43.433,41.098c16.346,5.604,18.681,12.143,40.163,7.005
		c21.483-5.137,29.422-10.741,35.026-14.478C233.019,340.815,245.629,335.211,245.629,335.211z"/>
	<path style="fill:#B4B4B5;" d="M310.778,397.558c0,0-80.327,1.444-82.662,3.503c-2.335,2.059-7.706,5.604,1.401,8.406
		c9.107,2.802,77.758,0,77.758,0L310.778,397.558z"/>
	<path style="fill:#C8C9CA;" d="M303.773,396.157c0-2.102,44.834-105.079,46.935-109.282c2.101-4.203,5.604-7.005,18.214-7.005
		c12.609,0,116.034-0.72,127.496-2.102c11.462-1.382,17.513,0.701,14.711,9.807c-2.802,9.107-41.53,96.422-47.432,106.086
		c-5.902,9.664-3.706,14.405-12.113,14.405c-8.406,0-148.512,2.802-148.512,2.802L303.773,396.157z"/>
	<path style="fill:#ED7342;" d="M176.645,184.965c9.644,3.857,42.191,12.808,56.506,18.835
		c14.315,6.027,30.137,12.808,39.178,11.301c9.041-1.507,3.767-15.822-9.041-22.602c-12.808-6.781-57.218-8.328-70.821-9.794
		C178.863,181.239,169.11,181.951,176.645,184.965z"/>
	<g>
		<path style="fill:#231815;" d="M286.013,172.887c-4.014-3.317-8.116-6.703-11.569-9.826c-3.46-3.116-6.25-5.981-7.766-8.066
			c-1.528-2.084-3.6-4.362-5.39-5.833c-0.906-0.738-1.748-1.274-2.572-1.523c-0.822-0.24-1.676-0.242-2.518,0.318
			c-0.682,0.453-0.942,1.331-0.785,2.4c0.151,1.067,0.703,2.264,1.465,3.383c1.527,2.252,3.863,4.172,5.565,5.067
			c1.699,0.927,6.02,3.956,10.661,7.206c4.635,3.264,9.54,6.881,12.214,9.335c2.678,2.445,5.323,4.923,7.723,7.415
			c1.2,1.245,2.329,2.499,3.342,3.751c1.002,1.248,1.909,2.52,2.473,3.716c0.279,0.594,0.53,1.083,0.729,1.465
			c0.198,0.387,0.366,0.649,0.489,0.995c0.122,0.341,0.122,0.769,0.108,1.184c-0.015,0.413-0.039,0.794,0.056,1.118
			c0.089,0.318,0.28,0.561,0.655,0.639c0.365,0.077,0.947,0.018,1.669-0.593c0.355-0.295,0.733-0.773,0.99-1.389
			c0.281-0.625,0.381-1.362,0.352-2.098c-0.084-1.473-0.706-2.774-1.56-3.961c-1.756-2.295-3.293-3.571-4.596-4.764
			c-1.314-1.154-2.432-2.087-3.538-3.025C291.993,177.933,289.824,176.043,286.013,172.887z"/>
		<path style="fill:#231815;" d="M244.068,187.576c-10.909-1.563-22.157-3.243-32.109-4.182c-4.973-0.5-9.62-0.856-13.721-1.138
			c-4.1-0.264-7.654-0.472-10.429-0.684c-2.785-0.223-5.887-0.32-8.946-0.334c-3.046-0.035-6.047,0.044-8.666,0.127
			c-5.232,0.217-9.131,0.739-8.852,2.82c0.122,0.837,1.27,1.583,3.074,2.231c1.805,0.616,4.27,1.087,6.967,1.327
			c5.415,0.497,11.566,0.052,15.388-0.481c1.92-0.273,5.613-0.601,10.318-0.77c4.705-0.162,10.433-0.124,16.403,0.165
			c11.94,0.592,24.799,2.314,32.422,3.544c15.248,2.496,30.456,5.118,43.531,7.36c3.28,0.54,6.196,0.672,8.504,0.328
			c0.583-0.099,1.123-0.207,1.696-0.472c0.276-0.138,0.692-0.397,0.794-0.868c0.04-0.397-0.092-0.606-0.186-0.762
			c-0.424-0.591-0.743-1.02-1.018-1.301c-0.281-0.257-0.618-0.234-0.923,0.41c-0.14,0.296-0.213,0.796-0.263,1.159l-0.071,0.128
			c0.286-0.051,0.655-0.074,0.998-0.051l0.132,0.01l0.043-0.006l0.085-0.003l0.179,0.031l0.09,0.035l0.005-0.001l0.009-0.003
			c0.059,0.042-0.105-0.08-0.136-0.163l-0.058-0.151c-0.06-0.106-0.114-0.217-0.158-0.331c-0.094-0.236-0.131-0.452-0.166-0.736
			l-0.074-0.297l-0.013-0.009l-0.024-0.016l-0.06-0.025c-0.092-0.018-0.187-0.037-0.286-0.056c-0.257-0.046-0.533-0.095-0.828-0.147
			c-0.665-0.108-1.414-0.23-2.255-0.367c-1.732-0.263-3.891-0.542-6.493-0.79C268.107,191.057,264.819,190.534,244.068,187.576z"/>
		<path style="fill:#231815;" d="M209.107,134.227c4.42,0.11,8.281-0.421,12.136-2.153c0.984-0.391,1.884-0.992,2.853-1.553
			c0.903-0.652,1.852-1.324,2.725-2.156c1.782-1.607,3.434-3.709,5.014-5.979c0.409-0.581,0.754-1.023,1.14-1.479
			c0.402-0.458,0.797-0.872,1.176-1.262c0.767-0.767,1.495-1.393,2.176-1.925c1.378-1.039,2.587-1.665,3.709-2.049
			c1.123-0.379,2.16-0.528,3.238-0.475c1.069,0.069,2.229,0.305,3.479,1.04c1.249,0.741,1.972,1.566,2.527,2.261
			c0.559,0.699,0.91,1.343,1.285,2.054c0.709,1.489,1.408,3.268,2.514,8.047c2.332,9.609,0,0,2.138,6.713
			c2.138,6.713,4.318,8.977,4.318,8.977l0.508-7.556l-2.683-7.279c-0.907-2.407-1.732-4.884-2.864-7.324
			c0,0-0.081-0.214-0.226-0.599c-0.141-0.386-0.372-0.939-0.676-1.617c-0.318-0.673-0.704-1.476-1.248-2.325
			c-0.527-0.853-1.197-1.764-2.067-2.608c-0.86-0.84-1.909-1.643-3.123-2.167c-1.202-0.53-2.517-0.835-3.79-0.883
			c-2.576-0.093-4.726,0.774-6.116,1.472c-1.404,0.721-2.849,1.673-4.247,2.758c-1.391,1.09-2.759,2.262-4.007,3.663
			c-1.172,1.29-2.18,2.462-3.168,3.412c-0.476,0.504-0.966,0.898-1.39,1.314c-0.443,0.377-0.849,0.724-1.211,1.032
			c-1.445,1.191-3.581,3.056-6.595,4.305c-2.979,1.275-6.772,1.796-10.16,1.358c-0.85-0.042-1.568-0.174-2.176-0.196
			c-0.607-0.031-1.098-0.009-1.475,0.056c-0.754,0.13-1.051,0.429-0.865,0.815c0.187,0.386,0.86,0.86,2.043,1.337
			C205.167,133.776,206.898,134.092,209.107,134.227z"/>
		<path style="fill:#231815;" d="M127.624,133.57c-1.086,1.675-2.65,3.051-4.266,4.173c-1.623,1.117-3.274,1.962-4.623,2.669
			c-0.658,0.367-2.631,1.268-4.96,2.673c-2.339,1.402-5.057,3.456-7.558,5.951c-0.626,0.62-1.228,1.278-1.835,1.913
			c-0.596,0.652-1.161,1.327-1.724,1.974c-0.311,0.358-0.618,0.711-0.921,1.059c-0.32,0.383-0.663,0.711-0.991,1.047
			c-0.662,0.66-1.319,1.243-1.941,1.773c-2.513,2.085-4.347,3.481-4.92,4.3c-1.158,1.596-2.603,2.884-3.798,4.629
			c-0.327,0.547-0.671,1.126-1.038,1.741c-0.429,0.761-0.941,1.507-1.46,2.327c-1.069,1.604-2.324,3.326-3.685,5.222
			c-0.978,1.37-2.265,2.735-3.552,4.013c-1.286,1.28-2.559,2.502-3.643,3.64c-1.107,1.125-1.965,2.194-2.612,2.98
			c-0.606,0.813-0.974,1.307-0.974,1.307c-0.347-0.081-0.488-1.01-0.295-2.463c0.168-1.459,0.792-3.401,1.738-5.401
			c0.944-1.999,2.21-4.019,3.387-5.739c1.181-1.722,2.254-3.165,3.007-4.041c0.76-0.874,1.633-1.941,2.476-3.122
			c0.422-0.59,0.845-1.204,1.23-1.843c0.372-0.568,0.877-1.442,1.399-2.094c2.131-2.761,4.636-4.477,5.831-5.393
			c0.607-0.455,1.961-1.469,3.507-2.791c0.775-0.663,1.582-1.415,2.322-2.248c0.385-0.41,0.71-0.855,1.059-1.299
			c0.389-0.515,0.781-1.034,1.172-1.552c0.761-1.051,1.615-2.04,2.381-3.009c0.82-0.932,1.564-1.844,2.299-2.604
			c0.719-0.773,1.353-1.452,1.884-1.968c0.521-0.525,0.888-0.934,1.083-1.15c0.744-0.889,2.189-2.306,4.104-3.732
			c1.901-1.448,4.19-2.912,6.316-4.336c2.122-1.426,3.865-1.955,5.376-2.077c1.512-0.106,2.755,0.192,3.717,0.558
			c0.957,0.357,1.099,1.074,0.983,1.714C127.987,133.013,127.624,133.57,127.624,133.57z"/>
		<path style="fill:#231815;" d="M193.815,136.689c1.166-1.2,1.6-3.743,2.087-5.859c0.114-0.515,0.226-1.02,0.334-1.51
			c0.094-0.458,0.196-0.903,0.247-1.281c0.115-0.782,0.069-1.341-0.355-1.874c-0.433-0.518-0.961-1.463-1.464-2.801
			c-0.499-1.346-0.974-3.047-1.467-4.893c-0.494-1.834-1.043-3.801-1.736-5.568c-0.686-1.769-1.556-3.335-2.438-4.331
			c-0.876-0.998-1.769-2.177-2.825-3.328c-1.051-1.149-2.278-2.257-3.627-3.123c-1.322-0.929-2.807-1.489-4.143-1.922
			c-0.676-0.172-1.323-0.297-1.919-0.413c-0.593-0.057-1.137-0.097-1.612-0.116c-0.942,0.004-2.271,0.049-3.835,0.289
			c-1.542,0.293-3.345,0.705-5.147,1.478c-1.812,0.749-3.669,1.75-5.394,2.998c-1.727,1.259-3.277,2.798-4.549,4.325
			c-2.563,3.092-3.995,4.784-5.678,6.459c-0.836,0.837-1.706,1.686-2.793,2.675c-1.087,0.99-2.363,2.158-4.134,3.485
			c-3.544,2.625-5.63,3.734-5.718,4.468c-0.051,0.339,0.379,0.496,1.28,0.405c0.455-0.034,1.012-0.16,1.659-0.39
			c0.663-0.202,1.387-0.544,2.196-0.973c1.59-0.893,2.733-1.754,3.654-2.556c0.928-0.798,1.635-1.542,2.346-2.27
			c1.407-1.464,2.767-2.93,5.363-5.084c2.584-2.136,5.078-4.383,7.379-6.13c2.36-1.726,4.732-3.108,6.847-4.161
			c2.108-1.076,4.755-1.604,7.199-1.402c0.618,0.01,1.199,0.17,1.779,0.271c0.57,0.134,1.106,0.337,1.628,0.519
			c1.004,0.457,1.906,0.972,2.635,1.581c0.759,0.575,1.485,1.424,2.047,2.441c0.569,1.013,0.985,2.183,1.275,3.349
			c0.575,2.338,0.739,4.635,0.968,5.7c0.23,1.062,0.524,3.54,0.924,5.888c0.203,1.17,0.428,2.293,0.654,3.137
			c0.099,0.418,0.207,0.766,0.277,1.008c0.071,0.242,0.111,0.377,0.111,0.377s0.051,0.502,0.185,1.301
			c0.172,0.8,0.424,1.915,0.982,3.088c0.541,1.165,1.336,2.386,2.264,3.258c0.45,0.441,0.931,0.789,1.356,1.052
			C193.096,136.494,193.494,136.646,193.815,136.689z"/>
		<path style="fill:#231815;" d="M145.103,185.367c-0.266-0.864-0.371-1.78-0.301-2.661c0.073-0.882,0.32-1.724,0.66-2.453
			c0.68-1.472,1.736-2.447,2.511-2.842c0.784-0.413,1.634-0.883,2.265-1.408c0.617-0.519,1.102-1.167,0.792-2.135
			c-0.246-0.771-1.266-0.977-2.353-0.618c-1.084,0.342-2.106,1.224-2.496,1.958c-0.212,0.355-0.649,0.988-1.112,1.81
			c-0.46,0.826-0.907,1.87-1.189,2.99c-0.286,1.12-0.389,2.315-0.303,3.387c0.08,1.076,0.338,2.009,0.533,2.704
			c0.8,2.803,2.926,5.158,5.264,6.327c0.585,0.3,1.195,0.322,1.645,0.197c0.461-0.147,0.761-0.418,0.865-0.715
			c0.104-0.297,0.023-0.623-0.259-0.876c-0.289-0.241-0.758-0.464-1.547-0.662c-1.57-0.49-2.418-1.123-3.121-1.816
			C146.281,187.834,145.639,187.001,145.103,185.367z"/>
		<path style="fill:#231815;" d="M183.987,182.452c1.359,1.352,2.57,2.305,3.675,3.025c1.099,0.735,2.106,1.209,3.058,1.544
			c1.907,0.659,3.568,0.846,5.245,1.401c1.675,0.56,8.064,3.083,14.814,5.813c6.757,2.717,13.92,5.567,17.355,6.395
			c3.373,0.82,16.999,4.694,23.541,6.737c0.686,0.22,2.275,0.806,4.363,1.531c2.083,0.749,4.676,1.638,7.319,2.437
			c2.649,0.792,5.327,1.459,7.483,1.465c0.547,0.003,1.086-0.022,1.615-0.066c0.497-0.054,0.968-0.105,1.408-0.154
			c0.549-0.051,1.018-0.096,1.381-0.13c0.122-0.014,0.238-0.028,0.349-0.041l0.161-0.025l0.084-0.13
			c0.108-0.171,0.158-0.349,0.196-0.509c0.06-0.325,0.043-0.589,0.024-0.797c-0.05-0.415-0.111-0.617-0.145-0.74
			c-0.082-0.259-0.174-0.511-0.272-0.738c-0.03-0.067-0.138-0.338-0.219-0.502c-0.087-0.187-0.165-0.371-0.257-0.55
			c-0.347-0.719-0.71-1.372-1.042-1.941c-0.665-1.14-1.207-1.946-1.45-2.326c-0.389-0.602-1.016-1.554-1.814-2.642
			c-0.399-0.541-0.844-1.121-1.313-1.679c-0.229-0.272-0.486-0.562-0.671-0.747c-0.208-0.195-0.536-0.47-0.804-0.702
			c-2.363-1.898-5.336-3.489-6.96-4.184c-1.632-0.678-4.196-1.981-5.855-3.451c-0.828-0.721-1.407-1.47-1.525-2.023
			c-0.123-0.55,0.215-0.886,1.132-0.962c1.806-0.143,3.865,0.902,6.012,2.189c2.128,1.284,4.211,2.868,5.486,3.703
			c0.321,0.205,0.912,0.623,1.728,1.243c0.813,0.645,1.847,1.432,2.975,2.653c1.034,1.223,2.086,2.689,3.208,4.376
			c1.107,1.692,2.286,3.593,3.293,5.786c0.084,0.182,0.2,0.436,0.361,0.784c0.163,0.37,0.373,0.841,0.577,1.47
			c0.2,0.626,0.434,1.412,0.457,2.384c0.023,0.485-0.044,1.018-0.233,1.557c-0.103,0.253-0.221,0.574-0.43,0.755
			c-0.266,0.089-0.541,0.181-0.828,0.276c-0.934,0.222-2.035,0.483-3.25,0.772c-1.087,0.271-2.325,0.55-3.684,0.658
			c-2.729,0.225-5.612-0.207-8.241-0.686c-2.641-0.492-5.095-1.055-7.026-1.55c-1.932-0.494-3.37-0.869-3.919-1.075
			c-2.574-0.893-8.381-3.338-13.576-5.685c-5.196-2.347-9.826-4.531-10.17-4.755c-1.07-0.704-6.877-2.714-12.81-4.722
			c-2.964-1.005-5.958-2.021-8.417-2.855c-2.457-0.834-4.363-1.536-5.138-1.964c-1.56-0.828-5.211-1.048-8.839-1.141
			c-3.631-0.111-7.207-0.122-8.766-0.825c-0.782-0.362-1.481-0.804-2.095-1.289c-0.612-0.471-1.139-0.968-1.576-1.488
			c-0.873-1.034-1.385-2.113-1.449-2.943c-0.124-1.659,0.296-5.892,1.582-4.486c0.637,0.702,1.607,1.081,2.424,1.286
			C183.341,182.391,183.987,182.452,183.987,182.452z"/>
		<path style="fill:#231815;" d="M261.874,218.107c0.057-3.301-4.161-9.17-8.492-7.828c-2.155,0.675-6.422,1.589-10.764,2.998
			c-4.334,1.371-8.717,3.408-10.776,5.395c-2.067,1.926-4.971,3.873-7.429,6.261c-2.465,2.356-4.366,5.139-5.122,7.064
			c-0.106,0.236-0.223,0.497-0.35,0.781c-0.121,0.286-0.216,0.605-0.338,0.939c-0.118,0.337-0.242,0.695-0.374,1.073
			c-0.066,0.189-0.132,0.383-0.201,0.582c-0.05,0.202-0.102,0.409-0.155,0.62c-0.455,1.687-0.833,3.695-0.975,5.866
			c-0.319,4.349,0.264,9.298,1.576,13.649c0.33,1.084,0.624,2.051,0.892,2.932c0.284,0.873,0.54,1.66,0.777,2.395
			c0.438,1.478,0.833,2.733,1.233,4.027c0.386,1.298,0.771,2.638,1.334,4.232c0.277,0.798,0.579,1.666,0.917,2.636
			c0.36,0.96,0.787,2.01,1.264,3.189c0.935,2.364,1.872,4.045,2.583,5.171c0.721,1.122,1.271,1.669,1.61,1.706
			c0.677,0.071,0.517-1.888-0.81-5.406c-1.245-3.542-2.228-5.522-3.05-7.56c-0.862-2.024-1.611-4.103-2.264-7.798
			c-0.654-3.695-1.147-7.367-1.556-10.785c-0.355-3.424-0.487-6.583-0.497-9.308c-0.016-2.727,0.713-5.704,2.005-8.267
			c1.284-2.582,3.16-4.663,4.919-6.199c1.74-1.582,4.548-3.034,7.25-3.933c2.705-0.912,5.223-1.453,6.4-1.78
			c1.149-0.378,3.861-0.936,6.296-1.354c2.448-0.398,4.619-0.677,4.619-0.677s1.941,0.176,4.093,0.198
			C258.646,218.947,261.031,218.803,261.874,218.107z"/>
		<path style="fill:#231815;" d="M59.03,197.962c-5.337,6.775-10.096,14.043-13.685,20.918c-3.613,6.875-6.315,13.228-8.293,18.377
			c-1.966,5.154-3.805,9.752-5.544,13.896c-1.768,4.144-3.362,7.879-4.803,11.256c-1.407,3.416-4.727,9.112-7.795,15.322
			c-3.108,6.171-5.778,13.005-6.66,17.677c-0.488,2.313-1.127,4.903-1.827,7.699c-0.655,2.598-1.436,5.238-2.243,8.012
			c-1.599,5.508-3.186,11.337-3.335,16.69c-0.155,5.336-0.434,11.807-0.24,18.261c0.1,1.627,0.103,3.219,0.262,4.817
			c0.062,0.797,0.124,1.583,0.184,2.359c0.09,0.784,0.18,1.555,0.267,2.312c0.145,1.513,0.414,2.988,0.633,4.386
			c0.098,0.637,0.194,1.255,0.287,1.853c0.076,0.54,0.151,1.061,0.222,1.561c0.511,4.015,1.525,7.004,2.561,10.057
			c1.037,3.058,2.041,6.157,2.565,10.533c0.523,4.369,1.83,10.507,3.503,15.515c0.818,2.5,1.678,4.703,2.339,6.269
			c0.685,1.559,1.102,2.509,1.102,2.509s0.418-0.968,0.533-2.526c0.052-0.778,0.036-1.704-0.108-2.754
			c-0.158-1.046-0.481-2.201-1.006-3.465c-1.105-2.52-1.749-6.253-2.051-9.557c-0.325-3.311-0.376-6.21-0.638-7.314
			c-0.246-1.093-1.23-5.463-2.375-10.544c-0.576-2.507-1.205-5.167-1.879-7.639c-0.327-1.242-0.676-2.432-1.014-3.545
			c-0.085-0.278-0.168-0.552-0.25-0.821c-0.085-0.302-0.168-0.599-0.25-0.889c-0.168-0.583-0.328-1.141-0.478-1.667
			c-1.195-4.227-1.389-9.631-0.884-14.789c0.484-5.176,1.586-10.138,2.481-14.025c0.899-3.891,2.43-5.644,3.589-7.229
			c1.17-1.585,1.986-2.993,1.613-6.17c-0.372-3.179-0.535-5.496-0.532-7.48c0.006-1.988,0.15-3.629,0.513-5.522
			c0.161-0.943,0.211-1.899,0.251-2.888c0.013-0.497,0.027-0.999,0.041-1.512c0.034-0.509,0.076-1.028,0.142-1.555
			c0.118-1.058,0.366-2.143,0.845-3.243c0.454-1.107,1.191-2.213,2.231-3.31c2.109-2.198,5.144-5.965,7.82-9.485
			c2.657-3.533,4.921-6.913,5.013-8.664c0.176-3.494,3.016-10.24,4.7-12.175c1.702-1.92,10.638-9.446,11.741-14.215
			c0.56-2.403,1.389-5.796,2.066-8.92c0.678-3.122,1.207-5.999,1.038-7.439c-0.358-2.915-1.87-3.241-0.227-7.948
			c0.888-2.326,0.671-2.209,1.044-3.031c0.179-0.418,0.536-1.053,1.292-2.337c0.736-1.3,1.916-3.216,3.883-6.125
			c1.028-1.417,1.881-2.746,2.726-3.864c0.832-1.13,1.552-2.143,2.175-3.057c1.308-1.762,2.212-3.142,2.848-4.256
			c1.326-2.163,1.508-3.332,1.696-4.505c0.188-1.173-0.197-2.057-1.467-1.696C64.402,192.456,62.163,193.991,59.03,197.962z"/>
		<path style="fill:#231815;" d="M307.385,384.729c5.443-12.409,9.707-20.401,16.327-37.221
			c6.646-16.818,8.103-18.641,12.786-28.894c2.346-5.135,3.284-7.197,4.516-9.747c1.213-2.563,2.816-5.559,6.085-12.854
			c0.788-1.799,1.379-3.148,1.819-4.153c0.444-0.957,0.745-1.567,0.946-1.942c0.388-0.763,0.313-0.653,0.164-0.432
			c-0.15,0.22-0.376,0.553-0.286,0.23c0.046-0.16,0.161-0.497,0.44-1.053c0.272-0.563,0.682-1.383,1.392-2.397
			c1.394-2.073,2.91-3.247,4.359-4.015c1.462-0.757,2.887-1.026,4.02-1.268c0.579-0.067,1.086-0.14,1.522-0.21
			c0.443-0.04,0.807-0.074,1.095-0.1c0.583-0.062,0.869-0.116,0.869-0.116c-1.723-0.71-3.554-1.302-5.557-1.478
			c-1.99-0.185-4.185,0.137-6.222,1.093c-1.902,1.501-3.283,3.417-4.345,5.353c-1.065,1.948-1.853,3.95-2.561,5.941
			c-1.349,3.921-2.79,7.752-4.32,11.595c0,0-2.391,5.093-5.374,11.174c-1.484,3.044-3.094,6.347-4.543,9.422
			c-1.453,3.08-2.722,5.907-3.635,7.976c-3.629,8.274-9.712,20.409-12.435,26.617c-2.722,6.207-6.893,19.174-11.429,29.517
			C298.483,398.109,301.945,397.135,307.385,384.729z"/>
		<path style="fill:#231815;" d="M390.054,280.669c27.885-0.303,46.49,0.189,83.655-0.91c9.292-0.275,16.553-0.441,22.579-0.539
			c2.99-0.037,5.673-0.07,8.148-0.101c1.11,0.035,2.122,0.245,2.833,0.677c0.71,0.427,1.128,1.052,1.341,1.866
			c0.213,0.81,0.217,1.747,0.107,2.683c-0.105,0.939-0.32,1.888-0.581,2.832c-0.26,0.947-0.579,1.89-0.915,2.864
			c-0.334,0.987-0.672,1.983-1.018,3.001c-1.375,4.048-2.867,8.44-4.732,13.929c-3.782,10.96-5.419,15.301-7.521,20.7
			c-1.059,2.697-2.252,5.653-3.989,9.792c-1.733,4.139-4.013,9.465-7.405,16.807c-3.408,7.334-5.329,10.864-6.164,12.534
			c-0.868,1.662-0.723,1.414-0.423,0.918c0.576-0.994,1.839-2.977-3.453,7.341c-2.662,5.16-4.846,9.621-6.536,13.436
			c-1.696,3.813-2.911,6.968-3.782,9.465c-0.86,2.503-1.392,4.341-1.704,5.554c-0.311,1.213-0.433,1.79-0.433,1.79
			c3.523-7.026,7.647-13.603,11.936-20.075c3.704-7.634,7.679-15.198,11.17-23.044c3.513-7.812,6.67-15.753,9.705-23.733
			c0,0,1.112-2.69,2.837-7.016c1.714-4.329,4.02-10.302,6.425-16.86c2.407-6.557,4.912-13.699,7.114-20.33
			c0.553-1.664,1.095-3.293,1.618-4.87c0.51-1.644,0.938-3.31,1.089-5.048c0.072-0.869,0.072-1.762-0.072-2.673
			c-0.143-0.907-0.45-1.849-0.988-2.683c-0.53-0.835-1.284-1.522-2.059-1.953c-0.771-0.432-1.548-0.7-2.255-0.839
			c-0.715-0.155-1.412-0.208-2.108-0.237c-0.629,0.006-1.266,0.011-1.912,0.017c-1.229,0.006-2.488,0.013-3.772,0.019
			c-2.569,0.003-5.237,0.005-7.959,0.008c-5.446-0.019-11.109-0.039-16.628-0.058c-11.038-0.054-21.493-0.114-28.462-0.038
			c-13.931,0.151-41.783,1.844-65.017,2.097C357.497,278.244,362.168,280.973,390.054,280.669z"/>
		<path style="fill:#231815;" d="M134.078,236.346c-1.823-0.563-4.285-0.635-6.223,0.844c-0.941,0.727-1.743,1.857-2.076,3.296
			c-0.354,1.439-0.268,3.182,0.404,5.009c0.655,1.83,1.735,4.076,3.007,6.314c1.205,2.148,2.541,4.53,3.877,6.913
			c2.673,4.765,5.346,9.529,6.966,12.417c0.811,1.443,2.37,4.032,4.356,7.296c0.995,1.631,2.093,3.432,3.258,5.343
			c0.288,0.476,0.581,0.957,0.877,1.445c0.276,0.471,0.554,0.948,0.836,1.429c0.575,0.952,1.096,1.995,1.66,3.014
			c2.181,4.171,4.22,8.83,6.552,13.187c2.262,4.366,5.08,8.316,7.813,11.065c1.336,1.401,3.015,2.734,4.9,3.947
			c0.942,0.605,1.981,1.096,3.009,1.654c1.004,0.436,2.028,0.882,3.067,1.333c4.202,1.696,8.948,3.135,13.791,3.477
			c4.832,0.395,9.544-0.25,13.467-1.207c3.942-0.953,7.188-2.091,9.66-2.78c6.872-2.065,9.437-4.507,8.94-5.497
			c-0.526-1.027-4.137-0.602-10.07,2.529c-2.486,1.257-6.183,2.854-10.625,3.914c-4.422,1.128-9.671,1.261-14.507,0.321
			c-4.837-0.986-9.191-2.875-12.574-4.592c-3.448-1.743-5.517-3.911-6.408-4.868c-0.208-0.262-0.517-0.623-0.911-1.07
			c-0.412-0.431-0.854-0.999-1.35-1.656c-1.038-1.275-2.138-3.03-3.311-5.05c-1.118-2.058-2.251-4.42-3.353-6.954
			c-1.088-2.552-2.229-5.228-3.366-7.894c-1.142-2.669-2.448-5.307-3.738-7.724c-1.277-2.416-2.481-4.694-3.546-6.707
			c-2.113-4.035-3.628-7.029-3.969-7.977c-0.681-1.896-2.892-5.971-5.164-10.296c-1.136-2.163-2.287-4.388-3.27-6.435
			c-1.001-2.076-1.779-3.857-2.064-5.221c-0.305-1.363-0.594-2.732-0.732-3.941c-0.145-1.211-0.121-2.238,0.015-2.951
			c0.141-0.715,0.334-1.16,0.51-1.458c0.068-0.159,0.181-0.258,0.219-0.343C134.052,236.391,134.078,236.346,134.078,236.346z"/>
		<path style="fill:#231815;" d="M87.212,277.582c4.454,2.953,7.394,4.058,9.242,4.989c1.843,0.931,2.522,1.728,2.527,3.957
			c-0.006,2.23,3.606,10.464,8.682,18.725c2.579,4.094,5.455,8.229,8.288,11.643c1.382,1.734,2.805,3.244,4.023,4.601
			c1.267,1.315,2.416,2.408,3.338,3.241c1.876,1.637,3.396,3.168,4.739,4.711c1.391,1.496,2.559,3.053,3.857,4.588
			c0.654,0.765,1.319,1.542,2.01,2.351c0.693,0.81,1.446,1.617,2.287,2.423c0.833,0.815,1.735,1.651,2.732,2.511
			c1.005,0.85,2.137,1.686,3.375,2.564c1.228,0.878,2.875,2.017,4.76,3.452c1.884,1.414,3.958,3.206,6.172,4.958
			c1.108,0.878,2.27,1.665,3.535,2.295c1.269,0.625,2.64,1.114,4.121,1.463c2.949,0.708,6.202,1.053,9.369,1.315
			c3.174,0.242,6.304,0.279,9.248,0.095c2.945-0.18,5.704-0.578,8.164-1.065c4.916-1.006,8.657-2.254,10.404-2.708
			c3.492-0.897,8.14-1.772,12.734-3.22c4.591-1.437,9.102-3.387,12.246-6.217c6.281-5.655,14.153-9.845,19.637-9.874
			c5.473-0.026,10.071-5.343,1.119,2.194c-8.956,7.556-14.534,7.396-20.683,11.564c-3.095,2.075-10.122,5.743-17.426,8.632
			c-3.63,1.432-7.314,2.658-10.495,3.46c-3.172,0.822-5.819,1.198-7.242,1.28c-1.424,0.08-4.734,0.571-9.055,0.694
			c-2.159,0.055-4.559,0.01-7.075-0.145c-2.514-0.187-5.122-0.465-7.767-0.871c-2.642-0.426-5.412-0.999-8.073-2.183
			c-1.329-0.563-2.571-1.32-3.664-2.086c-1.103-0.773-2.034-1.564-2.9-2.297c-1.711-1.475-3.154-2.742-4.411-3.791
			c-1.259-1.03-2.281-1.867-2.985-2.443c-2.906-2.401-12.243-10.058-20.242-18.916c-4.019-4.398-7.774-8.986-10.667-12.869
			c-1.452-1.937-2.695-3.693-3.739-5.101c-1.001-1.437-1.795-2.533-2.314-3.18c-2.054-2.6-3.977-5.976-5.957-9.308
			c-1.974-3.339-4.015-6.637-6.432-9.126c-2.412-2.494-3.816-5.585-4.562-8.041C87.376,279.394,87.212,277.582,87.212,277.582z"/>
		<path style="fill:#231815;" d="M244.791,271.078c-0.784,0.329-1.579,0.642-2.338,1.038c-0.39,0.2-0.754,0.349-1.165,0.592
			c-0.413,0.252-0.841,0.494-1.199,0.796c-1.506,1.157-2.629,2.566-3.582,3.982c-1.878,2.855-3.189,5.789-4.376,8.506
			c-2.327,5.458-4.197,10.102-5.825,12.879c-1.592,2.806-3.254,6.259-4.314,8.958c-0.521,1.369-0.916,2.538-0.973,3.574
			c-0.082,0.989,0.17,1.886,1.015,2.438c0.672,0.444,1.692,0.299,2.746-0.383c1.081-0.666,2.179-1.843,3.119-3.234
			c1.91-2.795,3.108-6.378,3.472-8.709c0.193-1.172,0.709-3.347,1.398-6.064c0.696-2.715,1.556-5.979,2.662-9.278
			c1.112-3.279,2.472-6.672,4.456-9.169c0.5-0.61,1.018-1.186,1.594-1.628c0.556-0.474,1.157-0.794,1.817-1.118
			c0.319-0.158,0.631-0.313,0.934-0.464c0.314-0.129,0.62-0.254,0.916-0.375c0.589-0.252,1.156-0.448,1.689-0.6
			c2.114-0.652,4.29-1.076,6.459-1.277c2.172-0.186,4.333-0.147,6.422,0.089c4.19,0.447,8.055,1.791,11.254,3.557l0.061,0.031
			l0.353-3.337c-7.388,1.639-9.718,7.827,1.117,4.255l7.059-2.328l-6.546-2.517c-0.209-0.08-0.468-0.179-0.734-0.282
			c-3.127-1.194-5.693-1.704-7.905-2.024c-2.214-0.323-4.098-0.387-5.968-0.392c-1.872-0.014-3.739,0.14-5.922,0.438
			C250.308,269.354,247.796,269.882,244.791,271.078z"/>
		<path style="fill:#231815;" d="M263.778,284.036c-0.816-0.08-1.458-0.091-2.031,0.07c-0.551,0.099-0.996,0.337-1.349,0.539
			c-0.35,0.179-0.624,0.46-0.841,0.654c-0.219,0.195-0.385,0.392-0.53,0.579c-0.286,0.343-0.479,0.558-0.723,0.694
			c-0.122,0.061-0.257,0.079-0.42,0.078c-0.16,0.017-0.349,0.003-0.589-0.038c-0.455-0.075-1.688,0.244-2.903,1.409
			c-1.202,1.112-2.374,3.122-2.004,5.356c0.271,2.243,1.739,4.355,3.472,5.589c1.721,1.276,3.564,1.802,4.726,1.901
			c1.174,0.101,2.159,0.117,3.112,0.104c0.966-0.035,1.888-0.117,2.856-0.277c1.891-0.378,4.054-1.139,6.174-3.349
			c1.052-1.094,2.63-2.996,3.948-5.555c0.339-0.647,0.694-1.355,1.193-2.055c0.487-0.695,1.191-1.381,2.047-1.804
			c1.676-0.864,3.868-0.877,5.573,0.206c1.726,1.061,2.603,2.959,2.869,4.666c0.276,1.735-0.005,3.44-0.615,4.812
			c-0.612,1.364-1.428,2.365-2.098,3.108c-0.68,0.744-1.236,1.254-1.591,1.563c-0.718,0.616-1.552,1.225-2.427,1.943
			c-0.906,0.715-1.843,1.49-2.823,2.231c-1.938,1.524-3.829,3.005-5.374,4.531c-0.765,0.795-1.731,1.42-2.723,1.923
			c-1,0.482-2.007,0.818-2.936,1.075c-1.862,0.493-3.496,0.8-4.874,0.734c-1.384-0.091-2.672,0.643-3.035,0.832
			c-0.182,0.1-0.135,0.079,0.244-0.206c0.387-0.276,1.068-0.867,2.301-1.756c2.476-1.825,4.706-2.296,6.389-2.674
			c1.701-0.359,3.095-0.697,4.424-1.846c0.647-0.589,1.707-1.422,2.878-2.584c1.192-1.117,2.502-2.522,3.796-3.908
			c1.387-1.52,2.848-2.765,3.816-3.823c0.999-1.053,1.531-1.939,1.812-2.429c0.281-0.45,0.769-1.79,0.45-3.505
			c-0.161-0.833-0.535-1.719-1.176-2.34c-0.625-0.635-1.506-0.991-2.467-0.944c-0.964,0.044-1.851,0.443-2.438,1.128
			c-0.642,0.705-1.129,1.762-1.736,2.792c-1.189,2.056-2.465,3.533-3.182,4.254c-0.716,0.716-2.254,2.212-4.605,3.534
			c-2.342,1.3-5.559,2.351-8.892,1.957c-3.277-0.383-6.216-2.038-8.04-3.971c-1.866-1.927-2.601-4.014-2.832-4.91
			c-0.165-0.443-0.204-0.941-0.293-1.442c-0.002-0.519-0.051-1.076,0.052-1.615c0.12-1.107,0.576-2.156,1.085-3.143
			c1.138-1.922,2.699-3.466,4.32-4.734c0.406-0.324,0.852-0.607,1.345-0.793c0.475-0.225,0.997-0.333,1.507-0.413
			c0.501-0.104,1.032-0.04,1.507-0.024c0.482,0.052,0.938,0.195,1.343,0.308c0.8,0.326,1.411,0.689,1.761,1.042
			C263.598,283.836,263.778,284.036,263.778,284.036z"/>
		<path style="fill:#231815;" d="M276.916,307.535c0.939,0.333,1.827,0.684,2.531,1.004c0.694,0.323,1.266,0.611,1.676,0.868
			c0.833,0.515,0.949,0.905,0.198,1.455c-0.185,0.137-0.373,0.402-0.587,0.75c-0.215,0.348-0.389,0.8-0.648,1.283
			c-0.449,0.993-1.059,2.156-1.696,3.33c-0.66,1.163-1.392,2.311-2.036,3.329c-0.658,1.005-1.222,1.884-1.518,2.517
			c-0.611,1.258-1.556,1.787-2.57,2.271c-0.5,0.253-1.034,0.484-1.554,0.823c-0.262,0.169-0.561,0.337-0.838,0.553
			c-0.287,0.206-0.552,0.487-0.873,0.734c-0.313,0.258-0.725,0.612-1.24,0.974c-0.527,0.327-1.129,0.739-1.809,1.102
			c-1.359,0.733-2.972,1.484-4.577,2.086c-3.21,1.237-6.33,2.103-7.294,2.177c-1.928,0.127-5.311-1.151-6.941,0.921
			c-1.634,2.071-3.631,2.81-5.381,1.694c-1.765-1.062-2.723,1.296-0.597-1.552c0.555-0.672,1.114-1.122,1.64-1.392
			c0.526-0.264,1.025-0.385,1.499-0.462c0.946-0.135,1.79-0.097,2.622-0.695c1.691-1.212,7.783-2.591,9.217-2.521
			c0.729,0.045,3.202-0.656,5.615-1.564c0.594-0.24,1.2-0.47,1.765-0.714c0.554-0.255,1.087-0.5,1.575-0.724
			c0.923-0.497,1.681-0.881,2.033-1.102c0.186-0.103,0.491-0.248,0.848-0.45c0.323-0.235,0.707-0.462,1.169-0.812
			c0.95-0.769,2.045-1.747,3.058-2.789c2.062-2.062,3.57-4.499,3.714-5.286c0.193-0.771,0.623-1.557,0.897-2.411
			c0.11-0.429,0.202-0.868,0.175-1.301c-0.056-0.434-0.14-0.858-0.456-1.236c-0.575-0.746-0.474-1.339-0.227-1.883
			C276.518,307.986,276.916,307.535,276.916,307.535z"/>
		<path style="fill:#231815;" d="M365.938,269.982c-1.38-2.149-3.261-3.47-5.078-4.472c-1.847-0.985-3.73-1.663-5.716-2.179
			c-3.974-1.021-8.381-1.454-14.14-1.173c-5.752,0.327-8.939,0.583-11.62,0.666c-2.675,0.106-4.826,0.117-8.371,0.49
			c-7.077,0.802-5.672,0.629-15.615,1.271c-4.952,0.323-4.908,0.282-4.565,0.337c0.178,0.022,0.445,0.055,0.236,0.135
			c-0.105,0.04-0.329,0.092-0.739,0.157c-0.155,0.03-0.589,0.078-1.007,0.18c-0.434,0.098-0.934,0.245-1.482,0.478
			c-1.1,0.467-1.979,1.107-2.673,1.798c-0.351,0.343-0.65,0.707-0.913,1.07c-0.263,0.362-0.473,0.714-0.713,1.205
			c-0.768,1.838-0.469,3.362,0.023,4.425c0.506,1.083,1.329,1.636,1.84,1.84c0.528,0.213,0.795,0.183,0.79,0.198
			c-0.669-0.531-1.025-1.267-1.095-1.927c-0.071-0.67,0.07-1.279,0.311-1.792c0.248-0.512,0.606-0.928,0.989-1.178
			c0.096-0.065,0.197-0.105,0.291-0.156c0.119-0.063,0.228-0.129,0.348-0.183c0.234-0.113,0.469-0.208,0.708-0.283
			c0.639-0.735,1.491-1.311,2.374-1.574c0.348-0.115,1.122-0.207,1.745-0.322l1.937-0.338l7.682-1.391c0,0,3.526-0.278,7.756-0.612
			c4.227-0.315,9.147-0.57,11.947-0.73c2.801-0.178,6.312-0.148,9.608,0.054c3.301,0.186,6.368,0.575,8.385,0.814
			c2.006,0.252,5.081,0.314,8.264,1.123c1.581,0.403,3.185,1.019,4.489,1.989c1.323,0.947,2.259,2.305,2.595,3.8
			c0.323,1.491,0.351,2.635,0.533,3.351c0.152,0.716,0.457,1.017,0.84,0.814c0.373-0.204,0.897-0.907,1.171-2.255
			c0.134-0.671,0.197-1.51,0.052-2.485C366.976,272.161,366.623,271.049,365.938,269.982z"/>
		<path style="fill:#231815;" d="M459.828,392.842c-7.538,2.732-7.651,4.331-10.96,3.297c-3.31-1.034-29.754-1.054-38.03-0.444
			c-8.276,0.61-12.408-0.882-22.442-0.423c-10.033,0.459-44.975,1.317-51.024,1.107c-6.051-0.21-15.463-1.653-22.178-0.426
			c-6.716,1.227-14.11,1.363-18.143,0.169c-4.034-1.194-9.407,0.187-0.002-1.232c9.403-1.419,13.436-0.125,19.482-0.714
			c6.045-0.589,26-0.671,30.469-0.365c4.469,0.306,33.081-0.389,39.265-0.365c6.184,0.024,39.112,0.25,44.483-0.066
			c5.371-0.316,12.633,0.206,18.061-0.805C454.237,391.562,459.828,392.842,459.828,392.842z"/>
		<path style="fill:#231815;" d="M460.817,408.29c-3.089-1.566-5.468-3.504-8.89-4.889c-3.421-1.373-7.883-2.219-15.151-1.641
			c-7.267,0.602-19.269,1.468-31.277,2.226c-6.006,0.345-12.013,0.69-17.428,1.001c-5.417,0.264-10.243,0.5-13.884,0.677
			c-7.284,0.315-26.578,1.505-47.91,2.203c-21.328,0.74-44.687,0.971-60.007,0.542c-7.66-0.18-16.666-0.392-26.21-0.617
			c-2.379-0.058-4.791-0.117-7.225-0.176c-2.339-0.072-4.489-0.284-6.083-1c-0.392-0.164-0.786-0.397-1.07-0.599
			c-0.266-0.175-0.519-0.434-0.749-0.713c-0.538-0.715-0.587-0.916-0.673-1.307c-0.062-0.364-0.008-0.771,0.219-1.08
			c0.037-0.11,0.158-0.069,0.244-0.091l0.281-0.029l0.696-0.068c19.545-1.669,38.066-2.63,49.053-2.611
			c15.44,0.028,22.764-1.204,22.565-2.349c-0.197-1.108-7.967-2.115-22.682-0.824c-6.114,0.538-14.899,1.117-24.814,1.794
			c-4.957,0.349-10.197,0.718-15.53,1.094c-2.665,0.198-5.353,0.398-8.04,0.598c-1.176,0.09-2.352,0.181-3.526,0.271
			c-0.081-0.015-0.122,0.045-0.16,0.106l-0.127,0.169c-0.091,0.109-0.157,0.233-0.223,0.358c-0.146,0.241-0.235,0.512-0.316,0.779
			c-0.157,0.542-0.173,1.116-0.104,1.671c0.135,1.117,0.617,2.146,1.383,3.114c0.387,0.46,0.824,0.862,1.309,1.199
			c0.502,0.343,1.046,0.621,1.607,0.86c2.271,0.939,4.81,1.086,7.257,1.197c4.942,0.202,9.592,0.393,13.758,0.564
			c8.334,0.302,14.73,0.617,17.651,0.791c5.841,0.408,31.794,0.994,57.391,0.771c12.797-0.074,25.503-0.322,35.559-0.546
			c10.055-0.235,17.461-0.418,19.661-0.359c2.2,0.059,5.858-0.022,10.316-0.167c4.458-0.147,9.711-0.421,15.104-0.655
			c5.39-0.267,10.918-0.549,15.926-0.736c5.006-0.221,9.493-0.344,12.802-0.279C444.757,409.756,460.817,408.29,460.817,408.29z"/>
		<path style="fill:#231815;" d="M4.204,404.855c9.713-1.162,21.263-0.621,29.606-0.266c4.172,0.181,23.808,1.271,43.765,1.927
			c19.955,0.695,40.232,0.814,45.641,0.263c10.813-1.114,23.414-0.384,47.774-1.954c8.786-0.572,20.31-0.522,29.65-0.362
			c9.338,0.139,16.489,0.432,16.489,0.432c0.317,0.701-9.562,2.262-21.149,3.565c-11.583,1.343-24.878,2.366-31.314,2.481
			c-3.217,0.054-7.08,0.119-11.191,0.189c-4.112,0.075-8.472,0.128-12.685,0.158c-8.424,0.104-16.257,0.072-20.321,0.065
			c-4.063,0.014-18.076,0.061-31.799,0.107c-13.724,0.029-27.157-0.055-30.062,0.116c-5.809,0.343-19.981,0.34-34.149,0.235
			c-14.17-0.094-20.481-2.612-23.607-4.392C-2.272,405.632,4.204,404.855,4.204,404.855z"/>
		<path style="fill:#231815;" d="M331.993,314.647c-1.946-0.005-4.151-0.164-6.736-0.602c-3.642-0.632-7.254-1.78-10.493-3.398
			c-3.22-1.613-6.143-3.719-7.962-6.172c-1.928-2.646-3.486-5.4-4.542-7.858c-1.072-2.472-1.673-4.713-1.974-6.495
			c-0.645-3.554-1.183-7.94-1.859-11.488c-0.696-3.53-1.724-6.195-3.744-5.818c-1.617,0.306-2.516,3.445-2.485,7.306
			c0.002,3.852,1.083,8.355,2.431,10.933c0.649,1.295,1.753,3.83,3.502,6.812c0.863,1.496,1.914,3.082,3.08,4.705
			c0.606,0.794,1.198,1.63,1.868,2.427c0.333,0.405,0.645,0.81,1,1.223c0.386,0.407,0.74,0.854,1.155,1.227
			c3.243,3.1,7.29,5.132,11.076,6.539c3.804,1.398,7.389,2.157,10.083,2.609c1.664,0.284,3.35,0.457,5.039,0.54
			C331.589,316.297,331.776,315.468,331.993,314.647z"/>
		<path style="fill:#231815;" d="M294.392,273.204c-1.635,0.777-2.497,1.608-3.071,2.056c-0.565,0.436-0.818,0.501-1.123-0.135
			c-0.287-0.654-2.328-1.55-4.701-1.876c-2.365-0.382-4.968-0.076-6.107,0.393c-1.146,0.448-2.047,0.422-3.063,0.449
			c-1.003,0.027-2.133,0.139-3.379,1c-0.623,0.417-1.599,1.144-2.583,2.125c-0.979,0.984-1.943,2.253-2.533,3.644
			c-1.266,2.78-0.976,5.737-0.987,6.587c-0.002,0.121-0.03,0.19-0.031,0.269c0.002,0.109,0.003,0.222,0.005,0.339
			c0.009,0.246-0.019,0.519,0.006,0.793c0.018,0.281,0.039,0.571,0.058,0.865c0.041,0.293,0.097,0.591,0.16,0.891
			c0.281,1.185,0.913,2.317,1.982,2.767c2.15,0.894,3.569,2.128,3.827,3.792c0.132,0.852,0.83,1.215,1.126,1.204
			c0.272-0.015-0.201,0.162-1.828-0.192c-1.665-0.368-2.473-1.191-3.052-1.945c-0.583-0.771-0.944-1.508-1.735-2.144
			c-0.802-0.622-2.1-2.403-2.809-4.481c-0.101-0.251-0.156-0.526-0.231-0.785l-0.103-0.397c-0.05-0.143-0.092-0.384-0.09-0.535
			c-0.028-0.524-0.076-0.99-0.052-1.438c0.023-0.444,0.04-0.842,0.09-1.175c0.06-0.335,0.121-0.603,0.18-0.788
			c0.05-0.185,0.117-0.496,0.216-0.901c0.043-0.202,0.09-0.428,0.142-0.674c0.068-0.243,0.141-0.505,0.219-0.784
			c0.322-1.108,0.859-2.444,1.64-3.66c1.533-2.49,4.002-4.201,4.895-4.666c0.887-0.523,3.88-1.796,6.957-2.203
			c3.07-0.475,6.098-0.241,6.952-0.298c1.754-0.144,3.875,0.831,5.799,0.393c0.986-0.234,1.828,0.165,2.384,0.596
			C294.108,272.735,294.392,273.204,294.392,273.204z"/>
		<path style="fill:#231815;" d="M296.169,283.009c-0.768,0.18-1.357,0.45-1.82,0.708c-0.473,0.271-0.828,0.529-1.084,0.708
			c-0.513,0.36-0.641,0.419-0.551-0.142c0.126-0.569-0.715-1.453-1.929-1.983c-1.197-0.547-2.656-0.698-3.345-0.492
			c-0.689,0.191-1.158-0.07-1.704-0.348c-0.539-0.271-1.163-0.551-1.985-0.276c-0.805,0.267-2.652,0.778-4.03,1.702
			c-0.691,0.448-1.252,0.965-1.595,1.425c-0.334,0.466-0.506,0.847-0.64,1.012c-0.225,0.319-0.819,0.798-1.012,1.495
			c-0.243,0.674-0.109,1.456,0.633,1.764c1.479,0.586,2.035,1.343,1.452,2.626c-0.598,1.27,1.046,1.266-1.005,0.712
			c-0.529-0.14-0.866-0.378-1.101-0.632c-0.231-0.26-0.384-0.509-0.457-0.799c-0.163-0.566-0.197-1.049-0.632-1.541
			c-0.469-0.445-0.966-1.843-0.763-3.354c0.093-0.746,0.383-1.462,0.712-1.984c0.344-0.507,0.681-0.867,0.915-0.985
			c0.229-0.132,0.633-0.534,1.2-0.958c0.567-0.415,1.284-0.867,2.038-1.201c1.503-0.705,3.116-1.036,3.693-1.07
			c0.58-0.047,2.401-0.068,4.142,0.216c1.75,0.242,3.41,0.771,3.922,0.799c0.514,0.023,1.044,0.302,1.588,0.539
			c0.548,0.247,1.109,0.432,1.833,0.335c0.368-0.064,0.664,0.037,0.891,0.202c0.228,0.164,0.391,0.375,0.482,0.621
			C296.21,282.581,296.169,283.009,296.169,283.009z"/>
		<path style="fill:#231815;" d="M280.512,304.865c1.275-0.732,2.023-1.513,2.471-1.928c0.452-0.426,0.591-0.507,0.483,0.045
			c-0.12,0.552,0.516,1.287,1.417,1.767c0.883,0.504,1.981,0.72,2.541,0.573c0.555-0.129,0.874,0.172,1.244,0.508
			c0.362,0.348,0.785,0.692,1.446,0.571c0.659-0.096,2.095-0.279,3.413-0.515c1.319-0.262,2.518-0.594,2.908-0.568
			c0.384,0.018,0.981,0.336,1.555,0.418c0.56,0.063,1.119-0.046,1.264-0.752c0.134-0.726,0.354-1.189,0.688-1.371
			c0.326-0.194,0.746-0.152,1.31,0.22c1.131,0.727,0.987-0.779,0.692,1.019c-0.17,0.923-0.601,1.201-1.025,1.289
			c-0.424,0.106-0.817,0.097-1.093,0.523c-0.145,0.202-0.426,0.415-0.78,0.62c-0.177,0.102-0.372,0.202-0.576,0.297
			c-0.209,0.078-0.428,0.148-0.646,0.212c-0.872,0.282-1.761,0.322-2.102,0.211c-0.34-0.095-1.477,0.096-2.659,0.205
			c-1.181,0.127-2.403,0.127-2.83,0.058c-0.212-0.044-0.652-0.137-1.205-0.254c-0.544-0.152-1.201-0.305-1.837-0.515
			c-1.282-0.382-2.495-0.891-2.889-0.907c-0.398-0.004-0.78-0.241-1.182-0.434c-0.411-0.173-0.841-0.293-1.429-0.085
			c-0.595,0.229-0.928-0.102-1.07-0.468C280.478,305.247,280.512,304.865,280.512,304.865z"/>
		<path style="fill:#231815;" d="M277.244,309.152c2.017-0.382,3.192-1.184,3.941-1.597c0.735-0.421,0.924-0.492,0.615,0.205
			c-0.077,0.175-0.101,0.376-0.076,0.601c0.038,0.218,0.135,0.45,0.27,0.696c0.254,0.506,0.732,1.004,1.283,1.457
			c0.547,0.457,1.213,0.804,1.806,1.075c0.619,0.227,1.183,0.356,1.581,0.339c0.809-0.074,1.189,0.409,1.633,0.962
			c0.447,0.515,0.976,1.068,1.917,1.064c0.476-0.038,1.221-0.019,2.08-0.006c0.867-0.058,1.84-0.011,2.783-0.138
			c0.471-0.051,0.934-0.057,1.368-0.122c0.433-0.071,0.84-0.129,1.207-0.172c0.739-0.055,1.291-0.195,1.566-0.143
			c0.54,0.072,1.35,0.575,2.139,0.673c0.781,0.118,1.603,0.059,1.846-0.957c0.253-0.978,0.607-1.587,1.092-1.821
			c0.454-0.293,1.055-0.197,1.808,0.319c1.519,1.024,1.448-1.035,0.881,1.411c-0.326,1.234-0.923,1.651-1.536,1.742
			c-0.607,0.127-1.165,0.082-1.588,0.664c-0.206,0.312-0.637,0.555-1.159,0.81c-0.528,0.233-1.142,0.517-1.783,0.633
			c-0.639,0.124-1.277,0.207-1.812,0.238c-0.534,0.04-0.971-0.062-1.206-0.146c-0.237-0.097-0.766-0.105-1.449-0.063
			c-0.681-0.005-1.516-0.003-2.368,0.021c-0.844-0.045-1.704-0.086-2.427-0.147c-0.715-0.104-1.297-0.202-1.594-0.288
			c-0.302-0.07-0.906-0.3-1.654-0.594c-0.759-0.262-1.626-0.691-2.491-1.083c-1.715-0.836-3.302-1.822-3.848-1.95
			c-0.542-0.144-1.028-0.551-1.544-0.926c-0.514-0.401-1.101-0.634-1.965-0.589c-0.881,0.072-1.281-0.478-1.38-1.083
			C277.073,309.658,277.244,309.152,277.244,309.152z"/>
		<path style="fill:#231815;" d="M173.417,136.833c-3.61,0.361-2.294-12.62,2.869-10.899
			C181.449,127.654,179.154,136.259,173.417,136.833z"/>
		<path style="fill:#231815;" d="M241.391,147.444c-1.957-5.331,2.699-12.657,5.177-7.085
			C249.045,145.931,243.602,153.464,241.391,147.444z"/>
		<path style="fill:#231815;" d="M300.058,397.892c1.151,0.814,2.177,1.128,2.741,1.318c0.568,0.18,0.708,0.232,0.168,0.234
			c-0.266,0.005-0.506,0.097-0.687,0.281c-0.163,0.192-0.31,0.446-0.354,0.737c-0.115,0.574,0.039,1.21,0.352,1.46
			c0.618,0.483-0.82,1.082-0.286,1.752c0.506,0.669,1.809,2.966,1.739,3.471c-0.102,0.506-1.26,1.747,0.016,1.787
			c1.271,0.031,1.539,0.484,0.542,1.266c-0.997,0.785,0.388,0.621-1.124,0.503c-1.519-0.142-0.421-0.967-1.09-1.198
			c-0.684-0.235-1.147-1.774-0.928-2.223c0.197-0.434-0.886-2.475-0.906-3.003c-0.024-0.252-0.066-1.054-0.083-1.853
			c-0.034-0.794-0.019-1.591-0.158-1.816c-0.152-0.219-0.066-0.503-0.061-0.781c-0.008-0.276-0.063-0.563-0.501-0.905
			c-0.452-0.335-0.272-0.665-0.003-0.833C299.705,397.917,300.058,397.892,300.058,397.892z"/>
		<path style="fill:#231815;" d="M247.409,345.715c0.844,2.566,1.419,4.721,2.124,7.065c0.696,2.341,1.58,4.854,2.868,8.102
			c0.315,0.811,0.569,1.54,0.746,2.182c0.185,0.646,0.266,1.15,0.333,1.755c0.143,1.133,0.178,2.043,0.197,2.868
			c0.009,1.656-0.081,2.981-0.03,5.182c0.049,2.201,0.038,3.082-0.051,4.181c-0.105,1.096-0.271,2.421-0.775,5.456
			c-0.53,3.022-0.57,3.005-0.454,2.801c0.101-0.209,0.323-0.625,0.121,1.534c-0.212,2.156-0.119,3.678,0.065,4.701
			c0.16,1.011,0.418,1.515,0.418,1.515c1.191-1.237,2.356-2.582,3.458-3.979c0.185-3.358,0.145-6.677,0.001-9.982
			c0,0,0.235-2.244,0.367-4.951c0.142-2.706,0.155-5.878,0.01-7.686c-0.051-0.926-0.109-1.968-0.17-3.055
			c-0.113-1.24-0.32-2.336-0.524-3.432c-0.421-2.164-0.892-4.145-1.314-5.431c-0.827-2.577-3.968-7.175-5.28-11.363
			c-0.318-1.042-0.659-1.708-0.963-2.026c-0.317-0.225-0.542-0.488-0.95-0.357c-0.208,0.028-0.376,0.316-0.497,0.593
			c-0.124,0.306-0.197,0.665-0.223,1.095C246.834,343.338,246.989,344.428,247.409,345.715z"/>
		<path style="fill:#231815;" d="M275.924,187.023c-3.676,0-2.581-5.593,0.43-4.302
			C279.365,184.012,279.796,187.023,275.924,187.023z"/>
		<path style="fill:#231815;" d="M101.544,191.039c-6.79-6.406,1.836-13.797,9.118-12.519c-0.633,2.229-3.058,4.119-3.695,6.48
			c-0.684,2.539,0.264,5.071,0.256,7.643c-1.954,0.998-3.916,0.777-5.636-0.615C101.917,191.844,102.402,191.411,101.544,191.039z"
			/>
		<path style="fill:#231815;" d="M130.225,255.857c-5.287-1.376-11.16,7.211-11.383,11.972c2.264-0.125,4.549-0.847,6.767-1.186
			c1.271-0.194,7.752,0.299,8.055,0.164C139.728,264.107,131.841,255.897,130.225,255.857z"/>
		<path style="fill:#231815;" d="M145.139,274.213c0.158,2.4,3.777,7.127,2.866,10.323c-1.149,4.028-6.962,3.055-10.891,2.87
			C120.528,286.626,139.612,275.531,145.139,274.213z"/>
		<path style="fill:#231815;" d="M130.225,145.149c2.134-0.64,4.517-1.355,6.797-1.06c0.132,2.923-5.428,7.948-8.756,6.773
			c-7.536-2.662,1.381-6.211,4.828-6.286"/>
		<path style="fill:#231815;" d="M223.724,158.343c2.685-0.082,5.633,3.675,7.426,5.634c-3.536,0.148-7.488-3.072-8.498-6.123
			C223.543,157.752,224.53,157.686,223.724,158.343z"/>
		<path style="fill:#231815;" d="M50.493,275.934c-1.231,3.726,2.499,15.338-4.032,17.823c-8.586,3.268-5.552-12.965-8.7-16.115
			c2.289-1.94,7.908-5.935,11.011-6.339C53.939,270.629,55.384,275.688,50.493,275.934z"/>
		<path style="fill:#231815;" d="M72.864,222.587c1.023-3.274,10.335-9.755,12.658-4.602c0.918,2.038-1.839,5.564-2.461,7.502
			c-0.936,2.911-0.389,5.71-1.149,8.603c-0.949,3.613-8.531,11.571-12.658,7.468c-5.413-5.381,7.529-8.491-2.11-13.778
			C68.878,226.021,70.44,224.213,72.864,222.587z"/>
		<path style="fill:#231815;" d="M30.416,337.884c-7.262-0.952,5.255-26.254,8.318-4.821c0.446,3.122,3.222,12.151,0.55,14.549
			C33.239,353.042,33.298,341.14,30.416,337.884z"/>
		<path style="fill:#231815;" d="M24.68,373.448c-2.459,2.222,4.473,12.949,5.105,17.123
			C23.652,395.472,5.876,376.167,24.68,373.448z"/>
		<path style="fill:#231815;" d="M52.214,390.657c-4.766-2.075-8.212-13.557-1.986-14.99c6.797-1.564,3.994,11.309,0.577,14.241
			C51.921,389.591,51.685,389.03,52.214,390.657z"/>
	</g>
</g>
</svg>
